<svg xmlns="http://www.w3.org/2000/svg" viewBox="0 0 1600 900"><defs><linearGradient id="w" x1="0" y1="0" x2="0" y2="1"><stop offset="0" stop-color="#5a5248"/><stop offset="1" stop-color="#2a2420"/></linearGradient><radialGradient id="g" cx=".5" cy=".3" r=".7"><stop offset="0" stop-color="#e6d8bf" stop-opacity=".5"/><stop offset="1" stop-color="#000" stop-opacity="0"/></radialGradient></defs><rect width="1600" height="900" fill="url(#w)"/><rect y="640" width="1600" height="260" fill="#1a1512"/>
<g fill="#3b2f25" stroke="#1a1512" stroke-width="4"><rect x="60" y="120" width="440" height="520"/><rect x="580" y="120" width="440" height="520"/><rect x="1100" y="120" width="440" height="520"/></g>
<g fill="#6b5a45" opacity=".9"><rect x="70" y="240" width="420" height="10"/><rect x="70" y="380" width="420" height="10"/><rect x="70" y="520" width="420" height="10"/><rect x="590" y="240" width="420" height="10"/><rect x="590" y="380" width="420" height="10"/><rect x="590" y="520" width="420" height="10"/><rect x="1110" y="240" width="420" height="10"/><rect x="1110" y="380" width="420" height="10"/><rect x="1110" y="520" width="420" height="10"/></g>
<g fill="#cfd8d6" opacity=".5"><rect x="60" y="120" width="440" height="520"/><rect x="580" y="120" width="440" height="520"/><rect x="1100" y="120" width="440" height="520"/></g>
<g><rect x="110" y="170" width="60" height="70" rx="8" fill="#a9b7b3"/><ellipse cx="240" cy="205" rx="34" ry="34" fill="#c9bfae"/><rect x="330" y="160" width="120" height="80" fill="#e0d6c2"/><rect x="120" y="300" width="90" height="80" fill="#8f7e66"/><ellipse cx="300" cy="340" rx="40" ry="40" fill="#e9dfd0"/><rect x="620" y="170" width="140" height="70" fill="#e7dcc7"/><rect x="820" y="160" width="60" height="80" rx="10" fill="#a9b7b3"/><rect x="620" y="440" width="380" height="80" fill="#d8ccb2"/><rect x="1140" y="300" width="140" height="80" fill="#e7dcc7"/><rect x="1330" y="290" width="180" height="90" fill="#a08d72"/><rect x="1150" y="440" width="120" height="80" rx="10" fill="#a9b7b3"/>
<rect x="1380" y="430" width="120" height="90" fill="#efe3c9" stroke="#8b1e2d" stroke-width="3"/></g>
<rect width="1600" height="900" fill="url(#g)"/></svg>
