<svg xmlns="http://www.w3.org/2000/svg" viewBox="0 0 1600 900"><defs><radialGradient id="g" cx=".5" cy=".5" r=".8"><stop offset="0" stop-color="#3d3225"/><stop offset="1" stop-color="#0d0a08"/></radialGradient></defs><rect width="1600" height="900" fill="url(#g)"/><g opacity=".22" fill="none" stroke="#e9d7a8" stroke-width="2"><rect x="200" y="80" width="1200" height="740"/><path d="M260 140v620M320 140v620M380 140v620M440 140v620M500 140v620M560 140v620M620 140v620M680 140v620M740 140v620M800 140v620M860 140v620M920 140v620M980 140v620M1040 140v620M1100 140v620M1160 140v620M1220 140v620M1280 140v620M1340 140v620"/></g></svg>
